<svg aria-hidden="true" style="position: absolute; width: 0; height: 0; overflow: hidden;" version="1.1" xmlns="http://www.w3.org/2000/svg" xmlns:xlink="http://www.w3.org/1999/xlink">
<defs>
<symbol id="icon-arrow" viewBox="0 0 26 32">
<path stroke-linejoin="round" stroke-linecap="round" stroke-width="6.4" d="M5.172 3.2L19.341 16 5.172 28.8"/>
</symbol>
<symbol id="icon-ellipse" viewBox="0 0 32 32">
<path d="M32 16c0 8.837-7.163 16-16 16s-16-7.163-16-16c0-8.837 7.163-16 16-16s16 7.163 16 16z"></path>
</symbol>
<!-- <symbol id="icon-burger" viewBox="0 0 32 32">
<path stroke-linejoin="miter" stroke-linecap="butt" stroke-miterlimit="4" stroke-width="1.6" d="M0 6.4h32"></path>
<path stroke-linejoin="miter" stroke-linecap="butt" stroke-miterlimit="4" stroke-width="1.6" d="M0 16h32"></path>
<path stroke-linejoin="miter" stroke-linecap="butt" stroke-miterlimit="4" stroke-width="1.6" d="M0 25.6h32"></path>
</symbol> -->
<symbol id="icon-close" viewBox="0 0 32 32">
<path stroke-linejoin="miter" stroke-linecap="butt" stroke-miterlimit="4" stroke-width="2" d="M2.519 2l26.963 28"></path>
<path stroke-linejoin="miter" stroke-linecap="butt" stroke-miterlimit="4" stroke-width="2" d="M2 29.481l28-26.963"></path>
</symbol>
<symbol id="icon-facebook" viewBox="0 0 16 32">
<path d="M14.266 15.97h-4.176v15.39h-6.327v-15.39h-3.009v-5.409h3.009v-3.5c0-2.503 1.182-6.422 6.384-6.422l4.687 0.020v5.25h-3.401c-0.558 0-1.342 0.28-1.342 1.474v3.183h4.729l-0.553 5.403z"></path>
</symbol>
<symbol id="icon-github" viewBox="0 0 32 32">
<path d="M16 0.941c-8.271 0-15.059 6.788-15.059 15.059 0 7.058 4.953 13.47 11.529 15.059v-4.982c-0.652 0.143-1.251 0.147-1.915-0.049-0.89-0.263-1.613-0.856-2.15-1.76-0.342-0.577-0.949-1.203-1.581-1.157l-0.155-1.758c1.368-0.117 2.551 0.833 3.254 2.013 0.312 0.525 0.671 0.832 1.132 0.969 0.446 0.131 0.924 0.068 1.481-0.129 0.14-1.116 0.651-1.534 1.037-2.122v-0.001c-3.922-0.585-5.486-2.666-6.106-4.308-0.822-2.181-0.381-4.905 1.073-6.627 0.028-0.034 0.079-0.121 0.060-0.183-0.667-2.014 0.146-3.679 0.176-3.856 0.769 0.228 0.894-0.229 3.342 1.258l0.423 0.254c0.177 0.105 0.121 0.045 0.298 0.032 1.022-0.278 2.099-0.431 3.16-0.445 1.069 0.014 2.14 0.167 3.204 0.456l0.137 0.014c-0.012-0.002 0.037-0.009 0.12-0.058 3.057-1.852 2.947-1.247 3.767-1.513 0.030 0.177 0.831 1.87 0.172 3.858-0.089 0.274 2.65 2.782 1.132 6.809-0.62 1.643-2.184 3.724-6.106 4.309v0.001c0.503 0.766 1.107 1.174 1.104 2.755v6.219c6.577-1.589 11.529-8.001 11.529-15.059 0-8.271-6.787-15.059-15.059-15.059v0z"></path>
</symbol>
<symbol id="icon-home" viewBox="0 0 32 32">
<path d="M30.129 15.447c0.553-0.6 0.5-1.52-0.119-2.054l-13.636-11.77c-0.619-0.534-1.611-0.523-2.217 0.025l-13.682 12.372c-0.606 0.548-0.636 1.466-0.066 2.051l0.343 0.352c0.569 0.584 1.489 0.654 2.053 0.155l1.023-0.903v13.224c0 0.811 0.667 1.468 1.488 1.468h5.333c0.822 0 1.488-0.657 1.488-1.468v-9.252h6.803v9.252c-0.012 0.811 0.576 1.468 1.398 1.468h5.652c0.822 0 1.488-0.657 1.488-1.468v-13.038c0 0 0.282 0.244 0.631 0.546s1.078 0.060 1.631-0.541l0.388-0.42z"></path>
</symbol>
<symbol id="icon-telegram" viewBox="0 0 32 32">
<path d="M12.964 19.8l-0.508 6.671c0.727 0 1.042-0.292 1.42-0.641l3.409-3.040 7.063 4.828c1.295 0.674 2.208 0.319 2.557-1.112l4.638-20.277c0.411-1.787-0.692-2.486-1.955-2.048l-27.252 9.738c-1.86 0.674-1.832 1.641-0.316 2.080l6.967 2.023 16.183-9.451c0.762-0.471 1.454-0.21 0.884 0.26l-13.091 10.971z"></path>
</symbol>
<symbol id="quote" viewBox="0 0 54 40">
<path d="M40.0179 2.59234e-06C42.4286 2.80309e-06 44.7054 0.650413 46.8482 1.95122C48.9911 3.25204 50.7321 5.12196 52.0714 7.56098C53.3571 10 54 12.8726 54 16.1789C54 19.4851 53.1964 22.71 51.5893 25.8537C51.0536 26.9919 50.0893 28.4553 48.6964 30.2439C47.25 32.0325 45.9107 33.5772 44.6786 34.878L39.6161 40L36 33.9837C38.5179 32.4119 40.7411 30.4607 42.6696 28.1301C44.5982 25.8537 45.5625 23.7669 45.5625 21.8699C45.5625 20.8943 45.3482 20.1084 44.9196 19.5122C43.0446 20.8672 40.9554 21.5447 38.6518 21.5447C36.9911 21.5447 35.4107 21.0298 33.9107 20C32.3571 19.0244 31.125 17.7236 30.2143 16.0976C29.25 14.5257 28.7679 12.8997 28.7679 11.2195C28.7679 9.32249 29.3304 7.50678 30.4554 5.77236C31.5268 4.03794 32.9464 2.62873 34.7143 1.54472C36.4286 0.51491 38.1964 2.43311e-06 40.0179 2.59234e-06ZM11.1696 7.03482e-08C13.5804 2.81099e-07 15.8571 0.65041 18 1.95122C20.1429 3.25203 21.8839 5.12195 23.2232 7.56098C24.5089 10 25.1518 12.8726 25.1518 16.1789C25.1518 18.5095 24.8571 20.5962 24.2679 22.439C23.6786 24.336 22.6607 26.3144 21.2143 28.374C19.8214 30.3252 18.5089 31.9512 17.2768 33.252C16.0446 34.607 13.9018 36.8564 10.8482 40L7.23214 33.9837C9.75 32.4119 11.9732 30.4607 13.9018 28.1301C15.8304 25.8537 16.7946 23.7669 16.7946 21.8699C16.7946 20.8943 16.5804 20.1084 16.1518 19.5122C14.2768 20.8672 12.1875 21.5447 9.88393 21.5447C8.22321 21.5447 6.64285 21.0298 5.14285 20C3.58928 19.0244 2.35714 17.7236 1.44643 16.0976C0.482142 14.5257 -1.44552e-06 12.8997 -1.29863e-06 11.2195C-1.13278e-06 9.32249 0.535712 7.50677 1.60714 5.77236C2.67857 4.03794 4.09821 2.62873 5.86607 1.54472C7.58036 0.514908 9.34821 -8.88862e-08 11.1696 7.03482e-08Z"></path>
</symbol>
<symbol id="line" viewBox="0 0 180 2">
<path d="M0 1H180" stroke="#E1E1E1"></path>
</symbol>
<symbol id="burger" viewBox="0 0 20 14">
<path d="M0 1H20" stroke="#D41443"/>
<path d="M0 7H20" stroke="#D41443"/>
<path d="M0 13H20" stroke="#D41443"/>
</symbol>

<symbol id="close" viewBox="0 0 16 16">
<path d="M1.25928 1L14.7408 15" stroke="white"/>
<path d="M1 14.7407L15 1.25924" stroke="white"/>
</symbol>

<symbol id="vector" viewBox="0 0 8 10">
<path d="M1.10693 1L6.3648 5L1.10693 9" stroke="#D41443" stroke-width="2" stroke-linecap="round" stroke-linejoin="round"/>
</symbol>

<symbol id="icon-products" viewBox="0 0 32 32">
 <path d="M19.414 27.414l10-10a2 2 0 000-2.828l-10-10a2 2 0 10-2.828 2.828L23.172 14H4a2 2 0 100 4h19.172l-6.586 6.586c-.39.39-.586.902-.586 1.414s.195 1.024.586 1.414a2 2 0 002.828 0z"/>
</symbol>

</defs>
</svg>
